<?xml version="1.0" encoding="UTF-8"?>
<!-- Generator: Adobe Illustrator 19.2.1, SVG Export Plug-In . SVG Version: 6.00 Build 0)  -->
<svg version="1.1" xmlns="http://www.w3.org/2000/svg" xmlns:xlink="http://www.w3.org/1999/xlink" x="0px" y="0px" viewBox="0 0 134.3 34.2" style="enable-background:new 0 0 134.3 34.2;" xml:space="preserve">
<style type="text/css">
	.st0{display:none;}
	.st1{display:inline;}
	.st2{fill:#FFDD40;}
	.st3{fill:#FFCC12;}
	.st4{display:inline;fill:#005CB9;}
	.st5{fill:#005CB9;}
	.st6{fill:#015595;}
</style>
<g id="Capa_1" class="st0">
</g>
<g id="Capa_2" class="st0">
	<g class="st1">
		<path class="st2" d="M-1.8,16.1c0,0.5,0.2,1,0.6,1.3c0,0,0,0,0.1,0.1l-0.1-0.1C-1.6,17-1.8,16.5-1.8,16.1 M9.1,5.2    c-0.5,0-1,0.2-1.3,0.6l-8.9,8.9c0.4-0.3,0.8-0.5,1.3-0.5c0.5,0,1,0.2,1.3,0.6l1.3,1.3l7.7-7.6c0.7-0.7,0.7-1.9,0-2.7    C10.1,5.4,9.6,5.2,9.1,5.2"/>
		<path class="st2" d="M2.8,16.1l-1.3,1.3C1.1,17.8,0.6,18,0.1,18c-0.5,0-0.9-0.2-1.3-0.5l8.9,8.9C8.1,26.8,8.6,27,9.1,27    c0.5,0,1-0.2,1.3-0.6c0.7-0.7,0.7-1.9,0-2.7L2.8,16.1 M-1.2,14.6C-1.2,14.7-1.2,14.7-1.2,14.6c-0.4,0.4-0.6,0.9-0.6,1.4    C-1.8,15.6-1.6,15.1-1.2,14.6L-1.2,14.6"/>
		<path class="st3" d="M0.1,14.2c-0.5,0-0.9,0.2-1.3,0.5l-0.1,0.1c-0.4,0.4-0.6,0.9-0.6,1.3c0,0.5,0.2,1,0.6,1.3l0.1,0.1    c0.4,0.3,0.8,0.5,1.3,0.5c0.5,0,1-0.2,1.3-0.6l1.3-1.3l-1.3-1.3C1.1,14.3,0.6,14.2,0.1,14.2"/>
	</g>
	<path class="st4" d="M27.5,17.4L27.5,17.4C27.4,17.5,27.5,17.4,27.5,17.4c0.4-0.4,0.6-0.9,0.6-1.3 M27.4,14.6l-8.9-8.9   c-0.4-0.4-0.9-0.6-1.3-0.6 M17.1,5.2c-0.5,0-1,0.2-1.3,0.6c-0.7,0.7-0.7,1.9,0,2.7l7.6,7.6"/>
	<path class="st4" d="M23.4,16.1l-7.6,7.7c-0.7,0.7-0.7,1.9,0,2.7c0.4,0.4,0.9,0.6,1.3,0.6s1-0.2,1.3-0.6l8.9-8.9   C27,17.8,26.6,18,26.1,18c-0.5,0-1-0.2-1.3-0.6L23.4,16.1 M28,16.1c0-0.5-0.2-1-0.6-1.3 M27.4,14.6"/>
	<g class="st1">
		<g>
			<path class="st5" d="M84.7,25.8l1,0c2.1-0.1,4.2-0.8,5.8-2.1l-2.6-2.5c-1,0.7-2.1,1-3.3,1.1h-0.8c-1.7-0.1-3.3-0.8-4.5-2.1     c-0.1-0.1-0.7-0.7-0.9-1.4l-0.1-0.5l-0.1-0.4h15.5c0-0.3,0.1-0.6,0.1-1l0-0.7l0,0c0-0.1,0-0.1,0-0.2c0-5.4-4.4-9.8-9.8-9.8     c-5.4,0-9.8,4.4-9.8,9.8C75.1,21.3,79.4,25.7,84.7,25.8 M79.3,13.4c1-2.2,3.2-3.6,5.6-3.6c2.4,0,4.6,1.4,5.6,3.6l0.2,0.5l0.2,0.4     H78.9L79.3,13.4z"/>
			<path class="st5" d="M111.2,20.1L111.2,20.1c0-3.5-3.1-4.8-5.9-5.7c-0.2-0.1-0.4-0.2-0.7-0.2c-2.3-0.8-4.1-1.4-4.1-2.9v-0.1     c0-1,0.8-2.1,2.9-2.1c1.5,0,3.4,0.6,5.5,1.7l1.7-3c-2.1-1.3-4.7-2-7-2c-3.5,0-7.1,1.9-7.1,6.1v0.1c0,3.5,2.8,4.8,5.8,5.7     c0.3,0.1,0.5,0.2,0.8,0.2c2.2,0.6,4.1,1.2,4.1,2.9v0.1c0,2.1-2.4,2.2-3.2,2.2c-2,0-4.3-0.8-6.5-2.3l-1.9,2.9     c2.4,1.7,5.3,2.7,8.2,2.7c2.9,0,5-0.8,6.2-2.4C111.1,22.6,111.2,20.9,111.2,20.1"/>
			<rect x="113.6" y="6.1" class="st5" width="3.6" height="20"/>
			<path class="st5" d="M128.9,22.3c-1.7,0-3.2-0.6-4.4-1.8c-1.2-1.2-1.8-2.7-1.8-4.4c0-1.7,0.6-3.2,1.8-4.4     c1.2-1.2,2.7-1.8,4.4-1.8c1.4,0,2.7,0.4,3.8,1.3l2.5-2.5c-1.8-1.5-4-2.3-6.3-2.3c-2.6,0-5.1,1-6.9,2.9c-1.8,1.8-2.9,4.3-2.9,6.9     c0,2.6,1,5.1,2.9,6.9c1.9,1.9,4.3,2.9,6.9,2.9c2.3,0,4.6-0.8,6.3-2.3l-2.5-2.5C131.6,21.8,130.3,22.3,128.9,22.3"/>
			<path class="st5" d="M115.4,1.2c-1,0-1.8,0.8-1.8,1.8c0,1,0.8,1.8,1.8,1.8c1,0,1.8-0.8,1.8-1.8C117.2,2.1,116.4,1.2,115.4,1.2"/>
			<path class="st5" d="M47.8,23.7v1.7h0v0.7h3.6V6.6h-3.6v1.8l-0.4-0.3l-0.6-0.4c-1.6-1-3.4-1.5-5.2-1.5c-5.4,0-9.8,4.4-9.8,9.8     c0,5.4,4.4,9.8,9.8,9.8c1.7,0,3.5-0.5,5-1.4l0.8-0.5L47.8,23.7z M41.6,22.3c-3.4,0-6.2-2.8-6.2-6.2c0-3.4,2.8-6.2,6.2-6.2     c3.2,0,5.8,2.4,6.2,5.5l0,0.1l0,1.3v0l0,0C47.4,19.9,44.7,22.3,41.6,22.3"/>
			<path class="st5" d="M62.7,34.2l0.7,0c5.3-0.1,9.6-4.5,9.6-9.8V6.6h-3.6v1.8l-0.4-0.3l-0.6-0.4c-1.6-1-3.4-1.5-5.2-1.5     c-5.4,0-9.8,4.4-9.8,9.8c0,5.4,4.4,9.8,9.8,9.8c1.7,0,3.4-0.5,4.9-1.3l1-0.6l0.5-0.3l-0.1,0.6l-0.2,1.2c-0.5,2.7-2.6,4.8-5.3,5.1     v0.1h-0.3l-1.5,0l-0.3,0v-0.1c-0.2,0-0.3-0.1-0.5-0.1l-2.8,2.8c1.2,0.6,2.6,0.9,3.9,0.9L62.7,34.2z M69.4,16.2     c-0.1,3.4-2.9,6.1-6.2,6.1c-3.4,0-6.2-2.8-6.2-6.2c0-3.4,2.8-6.2,6.2-6.2c3.2,0,5.8,2.4,6.2,5.5l0,0.1l0,0.4L69.4,16.2L69.4,16.2     L69.4,16.2z"/>
		</g>
	</g>
</g>
<g id="Capa_3" class="st0">
	<path class="st4" d="M15.4,7.8c0,0-0.6-1.1,0.4-2.1"/>
</g>
<g id="Capa_6">
	<g>
		<g>
			<path class="st5" d="M84.3,24.7l0.9,0c2-0.1,4-0.8,5.6-2l-2.5-2.4c-0.9,0.6-2,1-3.2,1h-0.8c-1.6-0.1-3.2-0.8-4.3-2     c-0.1-0.1-0.6-0.7-0.8-1.4l-0.1-0.5L79,17.1h14.9c0-0.3,0.1-0.6,0.1-0.9l0-0.7l0,0c0-0.1,0-0.1,0-0.2c0-5.2-4.2-9.5-9.5-9.5     c-5.2,0-9.5,4.2-9.5,9.5C75.1,20.3,79.2,24.6,84.3,24.7 M79.1,12.8c1-2.1,3.1-3.5,5.4-3.5c2.3,0,4.5,1.4,5.4,3.5l0.2,0.5l0.2,0.4     H78.7L79.1,12.8z"/>
			<path class="st5" d="M109.9,19.2L109.9,19.2c0-3.3-3-4.6-5.7-5.5c-0.2-0.1-0.4-0.1-0.6-0.2c-2.2-0.8-4-1.3-4-2.8v-0.1     c0-0.9,0.7-2,2.8-2c1.4,0,3.3,0.6,5.3,1.7l1.6-2.9c-2-1.2-4.5-1.9-6.8-1.9c-3.4,0-6.8,1.8-6.8,5.8v0.1c0,3.4,2.7,4.7,5.6,5.5     c0.3,0.1,0.5,0.2,0.8,0.2c2.1,0.6,3.9,1.2,3.9,2.7v0.1c0,2-2.4,2.2-3.1,2.2c-1.9,0-4.2-0.8-6.3-2.2l-1.8,2.8     c2.3,1.7,5.1,2.6,7.9,2.6c2.8,0,4.8-0.8,6-2.3C109.7,21.5,109.9,20,109.9,19.2"/>
			<rect x="112.1" y="5.7" class="st5" width="3.4" height="19.2"/>
			<path class="st5" d="M126.9,21.3c-1.6,0-3.1-0.6-4.3-1.8c-1.1-1.1-1.8-2.6-1.8-4.3c0-1.6,0.6-3.1,1.8-4.3     c1.1-1.1,2.6-1.8,4.3-1.8c1.3,0,2.6,0.4,3.6,1.2L133,8c-1.7-1.4-3.8-2.2-6.1-2.2c-2.5,0-4.9,1-6.7,2.8c-1.8,1.8-2.8,4.2-2.8,6.7     c0,2.5,1,4.9,2.8,6.7c1.8,1.8,4.2,2.8,6.7,2.8c2.2,0,4.4-0.8,6.1-2.2l-2.4-2.4C129.5,20.8,128.3,21.3,126.9,21.3"/>
			<path class="st5" d="M113.8,1c-1,0-1.8,0.8-1.8,1.8c0,1,0.8,1.8,1.8,1.8c1,0,1.8-0.8,1.8-1.8C115.6,1.8,114.8,1,113.8,1"/>
			<path class="st5" d="M48.7,22.7v1.6h0V25h3.4V6.2h-3.5v1.7l-0.4-0.3l-0.6-0.4c-1.5-0.9-3.2-1.4-5-1.4c-5.2,0-9.5,4.2-9.5,9.5     c0,5.2,4.2,9.5,9.5,9.5c1.7,0,3.3-0.5,4.8-1.3l0.8-0.5L48.7,22.7z M42.8,21.3c-3.3,0-6-2.7-6-6c0-3.3,2.7-6,6-6     c3.1,0,5.6,2.3,6,5.3l0,0.1l0,1.3v0l0,0C48.4,19,45.8,21.3,42.8,21.3"/>
			<path class="st5" d="M63.1,32.7l0.7,0c5.1-0.1,9.2-4.4,9.2-9.4V6.2h-3.5v1.7l-0.4-0.3l-0.6-0.4c-1.5-0.9-3.2-1.4-5-1.4     c-5.2,0-9.5,4.2-9.5,9.5c0,5.2,4.2,9.5,9.5,9.5c1.6,0,3.3-0.4,4.7-1.3l1-0.6l0.5-0.3l-0.1,0.6l-0.2,1.1c-0.4,2.6-2.5,4.6-5.1,5     v0.1h-0.3l-1.4,0l-0.3,0v-0.1c-0.2,0-0.3,0-0.5-0.1l-2.7,2.7c1.2,0.6,2.5,0.9,3.8,0.9L63.1,32.7z M69.6,15.4     c-0.1,3.2-2.8,5.9-6,5.9c-3.3,0-6-2.7-6-6c0-3.3,2.7-6,6-6c3.1,0,5.6,2.3,6,5.3l0,0.1l0,0.4L69.6,15.4L69.6,15.4L69.6,15.4z"/>
		</g>
	</g>
</g>
<g id="Capa_4">
	<path class="st2" d="M12.8,7.9c0,0,1.2-1.3,0-2.6S10,5.5,10,5.5l-8.6,8.6c0,0-0.6,0.7-0.3,1.6s0.6,1,0.6,1l4.5,4.5l4,4   c0,0,1.2,1.1,2.4,0c1.2-1.2,0.3-2.4,0.3-2.4l-7.5-7.5l-0.1-0.1L12.8,7.9z"/>
	<path class="st5" d="M17.9,7.9c0,0-1.2-1.3,0-2.6s2.8,0.2,2.8,0.2l8.6,8.6c0,0,0.6,0.7,0.3,1.6c-0.3,0.8-0.6,1-0.6,1l-4.5,4.5l-4,4   c0,0-1.2,1.1-2.4,0c-1.2-1.2-0.3-2.4-0.3-2.4l7.5-7.5l0.1-0.1L17.9,7.9z"/>
	<path class="st6" d="M27.9,13.4c-0.5,0-0.9,0.2-1.3,0.5l-1.3,1.3l1.3,1.3c0.4,0.4,0.8,0.5,1.3,0.5c0.4,0,0.9-0.2,1.2-0.5l0.1-0.1   c0.4-0.4,0.5-0.8,0.5-1.3c0-0.5-0.2-0.9-0.5-1.3l-0.1-0.1C28.8,13.6,28.3,13.4,27.9,13.4"/>
</g>
<g id="Capa_5">
	<path class="st3" d="M2.8,13.5c-0.4,0-0.9,0.2-1.2,0.5L1.5,14C1.2,14.4,1,14.8,1,15.3c0,0.5,0.2,0.9,0.5,1.3l0.1,0.1   c0.3,0.3,0.8,0.5,1.2,0.5c0.5,0,0.9-0.2,1.3-0.5l1.3-1.3L4.1,14C3.8,13.6,3.3,13.5,2.8,13.5"/>
</g>
</svg>